P3
3 2
255
76 76 76
149 149 149
29 29 29
225 225 225
255 255 255
0 0 0
